<?xml version="1.0" standalone="no"?>
<!DOCTYPE svg PUBLIC "-//W3C//DTD SVG 20010904//EN"
 "http://www.w3.org/TR/2001/REC-SVG-20010904/DTD/svg10.dtd">
<svg version="1.0" xmlns="http://www.w3.org/2000/svg"
 width="1254.000000pt" height="1254.000000pt" viewBox="0 0 1254.000000 1254.000000"
 preserveAspectRatio="xMidYMid meet">
<metadata>
Created by potrace 1.16, written by Peter Selinger 2001-2019
</metadata>
<g transform="translate(0.000000,1254.000000) scale(0.100000,-0.100000)"
fill="#000000" stroke="none">
<path d="M3240 11903 c-134 -6 -399 -34 -502 -53 -370 -71 -711 -221 -1008
-444 -115 -86 -319 -282 -407 -391 -254 -315 -433 -705 -502 -1095 -47 -271
-46 -157 -46 -3635 0 -3101 1 -3288 18 -3424 39 -313 101 -533 222 -788 125
-261 252 -447 440 -642 410 -425 885 -654 1530 -738 119 -15 386 -17 3130 -20
3036 -4 3258 -2 3521 32 593 78 1130 357 1509 785 282 319 479 709 565 1122
57 273 53 67 58 3578 3 3275 2 3390 -33 3645 -93 675 -472 1277 -1045 1657
-263 175 -571 300 -877 357 -314 58 -108 55 -3443 56 -1680 1 -3089 0 -3130
-2z m2290 -1568 c30 -8 89 -31 130 -51 93 -46 210 -159 263 -255 101 -182 103
-427 4 -614 -43 -81 -174 -211 -255 -254 -168 -88 -371 -96 -539 -21 l-43 19
-237 -256 c-603 -651 -778 -839 -795 -858 -17 -20 -17 -23 21 -100 52 -107 66
-170 65 -290 -1 -95 -19 -171 -68 -285 -4 -11 42 -60 159 -168 95 -88 167
-148 169 -140 185 654 528 1136 1066 1498 335 225 736 367 1125 400 156 13
773 13 942 0 569 -44 1039 -267 1388 -660 134 -151 273 -385 344 -578 38 -103
81 -262 81 -297 0 -13 -68 -15 -500 -15 l-500 0 -21 43 c-139 274 -395 480
-703 567 -163 45 -220 52 -544 57 -450 7 -595 -13 -857 -122 -368 -152 -660
-429 -845 -800 -125 -250 -180 -484 -180 -760 l0 -95 395 0 395 0 44 89 c49
97 83 131 128 131 36 0 83 -26 97 -54 12 -24 102 -269 121 -331 7 -22 15 -44
18 -49 4 -8 61 211 290 1118 40 161 57 190 117 202 33 6 80 -11 102 -38 6 -7
32 -108 57 -223 25 -116 57 -259 71 -320 26 -116 134 -638 163 -787 9 -49 20
-88 23 -88 3 0 13 24 21 53 9 28 64 205 124 391 101 316 111 340 139 358 40
24 75 23 114 -4 28 -20 46 -55 120 -233 l87 -210 867 -3 867 -2 0 -85 0 -85
-905 0 c-977 0 -945 -2 -973 52 -6 12 -31 69 -56 126 -24 57 -46 105 -48 108
-7 6 -137 -396 -273 -840 -22 -74 -89 -105 -154 -71 -35 17 -45 42 -70 170
-40 196 -261 1238 -264 1241 -2 2 -17 -54 -35 -124 -17 -70 -65 -257 -107
-417 -41 -159 -93 -364 -116 -455 -51 -204 -68 -227 -164 -221 -48 3 -64 33
-154 280 l-89 244 -16 -31 c-33 -64 -17 -62 -488 -62 l-428 0 0 -26 c0 -49 52
-258 87 -354 225 -605 761 -1025 1392 -1089 132 -14 499 -14 616 -1 255 30
483 115 660 247 80 60 191 169 233 230 l22 32 -225 260 c-124 143 -225 263
-225 266 0 3 352 5 781 5 l782 0 -7 -57 c-26 -223 -96 -462 -195 -668 -320
-661 -950 -1097 -1681 -1164 -180 -17 -770 -14 -925 4 -295 35 -524 106 -790
244 -152 78 -295 172 -415 270 l-85 69 -18 -65 c-62 -228 -246 -400 -479 -447
-143 -29 -258 -13 -397 55 -203 100 -341 326 -341 559 0 275 183 519 453 604
17 5 17 43 15 713 -3 821 13 717 -138 858 -53 50 -184 172 -292 272 l-196 183
-45 -25 c-99 -56 -227 -79 -353 -65 -251 28 -444 188 -530 440 -15 43 -19 84
-19 185 0 118 3 137 29 208 71 193 222 340 411 400 106 33 263 30 365 -7 41
-15 80 -29 86 -29 7 -1 78 70 160 158 174 189 423 457 702 757 l202 216 -39
84 c-47 101 -61 163 -61 274 0 111 12 158 70 279 41 86 59 111 123 172 80 76
185 136 279 159 73 17 231 17 298 -1z m-2017 -7305 c30 -11 63 -30 74 -43 27
-29 53 -81 53 -107 0 -18 -6 -20 -70 -20 -65 0 -73 2 -95 28 -23 26 -26 27
-152 30 -198 5 -221 -16 -222 -193 -1 -184 20 -205 207 -205 161 0 192 14 192
91 l0 29 -90 0 -90 0 0 60 0 60 166 0 166 0 -4 -113 c-3 -106 -5 -117 -33
-162 -50 -80 -79 -89 -285 -93 -196 -4 -238 4 -295 51 -65 53 -75 89 -75 276
0 147 2 169 21 208 46 96 115 121 326 122 129 1 160 -2 206 -19z m617 -310 l0
-330 -75 0 -75 0 0 330 0 330 75 0 75 0 0 -330z m1000 265 l0 -65 -97 -2 c-54
-1 -111 -2 -128 -2 l-30 -1 -3 -262 -2 -263 -75 0 -75 0 0 266 0 265 -127 -2
-128 -1 -3 66 -3 66 336 0 335 0 0 -65z m845 43 c33 -18 77 -62 93 -93 35 -68
20 -222 -26 -277 -49 -58 -87 -68 -274 -68 l-168 0 0 -100 0 -100 -75 0 -75 0
0 331 0 331 248 -4 c207 -2 252 -6 277 -20z m526 -190 c0 -137 4 -225 12 -248
18 -54 61 -70 182 -70 121 0 164 16 182 70 8 23 12 111 12 248 l1 212 75 0 75
0 0 -228 c0 -307 -15 -358 -124 -408 -47 -22 -63 -24 -221 -24 -158 0 -174 2
-221 24 -28 13 -61 38 -74 56 -43 61 -50 108 -50 352 l0 228 75 0 75 0 1 -212z
m992 -52 l2 -259 155 -3 c85 -1 177 -3 203 -3 l49 -1 -4 -62 -4 -63 -277 -3
-277 -2 0 330 0 331 76 -3 75 -3 2 -259z m1217 252 c0 -7 -6 -35 -13 -63 l-13
-50 -193 -5 c-176 -5 -194 -7 -207 -24 -19 -27 -18 -59 5 -87 18 -23 27 -24
173 -29 138 -5 157 -8 196 -30 64 -36 87 -80 87 -166 0 -60 -4 -77 -27 -111
-16 -24 -44 -49 -70 -62 -41 -20 -60 -21 -282 -21 l-237 0 6 23 c4 12 15 41
26 65 l18 42 190 0 c178 0 192 1 211 20 25 25 26 61 1 91 -18 23 -26 24 -173
29 -140 5 -157 7 -197 30 -59 33 -85 84 -85 164 1 89 37 147 114 180 47 20
470 23 470 4z m897 -5 c-3 -10 -8 -39 -12 -65 l-6 -48 -205 0 -204 0 0 -70 0
-70 175 0 175 0 0 -60 0 -60 -175 0 -175 0 0 -70 0 -70 215 0 215 0 0 -65 0
-65 -295 0 -295 0 0 330 0 330 296 0 c276 0 295 -1 291 -17z"/>
<path d="M5266 10010 c-152 -61 -234 -249 -176 -402 24 -64 89 -137 150 -168
82 -42 205 -40 289 4 56 29 118 102 141 164 27 69 24 186 -5 242 -31 62 -81
115 -136 145 -72 39 -188 46 -263 15z"/>
<path d="M3423 7962 c-264 -94 -286 -456 -35 -579 48 -23 70 -28 137 -28 67 0
88 4 130 27 68 35 118 86 150 153 25 50 27 63 23 143 -5 100 -26 147 -95 214
-78 76 -210 106 -310 70z"/>
<path d="M4526 4795 c-78 -30 -134 -83 -174 -165 -22 -45 -26 -69 -27 -135 0
-68 4 -88 27 -130 32 -60 87 -114 148 -146 37 -20 60 -24 130 -24 73 0 92 4
135 27 64 34 118 90 147 153 32 71 32 191 0 257 -31 62 -87 119 -147 148 -61
30 -181 37 -239 15z"/>
<path d="M5600 2821 l0 -101 141 0 c77 0 149 4 159 10 25 13 43 73 36 114 -12
63 -31 71 -192 74 l-144 4 0 -101z"/>
</g>
</svg>
